<svg width="256" height="256" viewBox="0 0 256 256" fill="none" xmlns="http://www.w3.org/2000/svg">
<path d="M256 128C256 198.692 198.692 256 128 256C57.3076 256 0 198.692 0 128C0 57.3076 57.3076 0 128 0C198.692 0 256 57.3076 256 128Z" fill="#1E4095"/>
<path d="M207.517 159.135C195.249 189.074 165.817 210.162 131.459 210.162C86.0826 210.162 49.2973 173.377 49.2973 128C49.2973 82.6231 86.0826 45.8378 131.459 45.8378C165.817 45.8378 195.249 66.9261 207.517 96.8649H166.895C158.269 87.3055 145.782 81.2973 131.892 81.2973C105.86 81.2973 84.7568 102.4 84.7568 128.432C84.7568 154.464 105.86 175.568 131.892 175.568C146.196 175.568 159.013 169.196 167.657 159.135H207.517Z" fill="white"/>
<path d="M128 128C128 119.402 134.97 112.432 143.568 112.432H212.757C221.354 112.432 228.324 119.402 228.324 128C228.324 136.598 221.354 143.568 212.757 143.568H143.568C134.97 143.568 128 136.598 128 128Z" fill="white"/>
</svg>
